<mxfile host="www.draw.io" modified="2020-06-02T15:40:02.417Z" agent="5.0 (X11; Linux x86_64) AppleWebKit/537.36 (KHTML, like Gecko) Code/1.45.1 Chrome/78.0.3904.130 Electron/7.2.4 Safari/537.36" etag="JI4dz-65KcRfnkHHPCp5" version="13.1.12" pages="4">
    <diagram id="6hGFLwfOUW9BJ-s0fimq" name="metal-control-plane">
        <mxGraphModel dx="1058" dy="566" grid="1" gridSize="10" guides="1" tooltips="1" connect="1" arrows="1" fold="1" page="1" pageScale="1" pageWidth="827" pageHeight="1169" math="0" shadow="0">
            <root>
                <mxCell id="0"/>
                <mxCell id="1" parent="0"/>
                <mxCell id="2" value="" style="rounded=0;whiteSpace=wrap;html=1;strokeColor=#000000;" parent="1" vertex="1">
                    <mxGeometry y="40" width="760" height="280" as="geometry"/>
                </mxCell>
                <mxCell id="3" value="metal-control-plane" style="text;html=1;strokeColor=#000000;fillColor=none;align=center;verticalAlign=middle;whiteSpace=wrap;rounded=0;" parent="1" vertex="1">
                    <mxGeometry y="40" width="130" height="20" as="geometry"/>
                </mxCell>
                <mxCell id="26" style="edgeStyle=orthogonalEdgeStyle;rounded=0;orthogonalLoop=1;jettySize=auto;html=1;exitX=0;exitY=0.5;exitDx=0;exitDy=0;entryX=1;entryY=0.5;entryDx=0;entryDy=0;" parent="1" source="4" target="9" edge="1">
                    <mxGeometry relative="1" as="geometry"/>
                </mxCell>
                <mxCell id="28" style="edgeStyle=orthogonalEdgeStyle;rounded=0;orthogonalLoop=1;jettySize=auto;html=1;entryX=0.5;entryY=1;entryDx=0;entryDy=0;" parent="1" source="4" target="13" edge="1">
                    <mxGeometry relative="1" as="geometry"/>
                </mxCell>
                <mxCell id="53" style="edgeStyle=orthogonalEdgeStyle;rounded=0;orthogonalLoop=1;jettySize=auto;html=1;exitX=0.25;exitY=1;exitDx=0;exitDy=0;entryX=0.75;entryY=1;entryDx=0;entryDy=0;" parent="1" source="4" target="8" edge="1">
                    <mxGeometry relative="1" as="geometry"/>
                </mxCell>
                <mxCell id="54" style="edgeStyle=orthogonalEdgeStyle;rounded=0;orthogonalLoop=1;jettySize=auto;html=1;exitX=0.25;exitY=1;exitDx=0;exitDy=0;entryX=1;entryY=0.5;entryDx=0;entryDy=0;" parent="1" source="4" target="7" edge="1">
                    <mxGeometry relative="1" as="geometry">
                        <Array as="points">
                            <mxPoint x="460" y="240"/>
                            <mxPoint x="190" y="240"/>
                            <mxPoint x="190" y="105"/>
                        </Array>
                    </mxGeometry>
                </mxCell>
                <mxCell id="7" value="nsqd" style="rounded=0;whiteSpace=wrap;html=1;strokeColor=#000000;" parent="1" vertex="1">
                    <mxGeometry x="40" y="75" width="120" height="60" as="geometry"/>
                </mxCell>
                <mxCell id="8" value="nsq-lookupd" style="rounded=0;whiteSpace=wrap;html=1;strokeColor=#000000;" parent="1" vertex="1">
                    <mxGeometry x="40" y="160" width="120" height="60" as="geometry"/>
                </mxCell>
                <mxCell id="27" style="edgeStyle=orthogonalEdgeStyle;rounded=0;orthogonalLoop=1;jettySize=auto;html=1;exitX=0.5;exitY=0;exitDx=0;exitDy=0;entryX=0.5;entryY=1;entryDx=0;entryDy=0;" parent="1" source="9" target="15" edge="1">
                    <mxGeometry relative="1" as="geometry"/>
                </mxCell>
                <mxCell id="9" value="masterdata-api" style="rounded=0;whiteSpace=wrap;html=1;strokeColor=#000000;" parent="1" vertex="1">
                    <mxGeometry x="236.5" y="160" width="120" height="60" as="geometry"/>
                </mxCell>
                <mxCell id="29" style="edgeStyle=orthogonalEdgeStyle;rounded=0;orthogonalLoop=1;jettySize=auto;html=1;" parent="1" source="11" edge="1">
                    <mxGeometry relative="1" as="geometry">
                        <mxPoint x="561" y="190" as="targetPoint"/>
                    </mxGeometry>
                </mxCell>
                <mxCell id="43" style="edgeStyle=orthogonalEdgeStyle;rounded=0;orthogonalLoop=1;jettySize=auto;html=1;exitX=0.75;exitY=1;exitDx=0;exitDy=0;" parent="1" source="11" edge="1">
                    <mxGeometry relative="1" as="geometry">
                        <mxPoint x="710" y="460" as="targetPoint"/>
                    </mxGeometry>
                </mxCell>
                <mxCell id="11" value="metal-console" style="rounded=0;whiteSpace=wrap;html=1;strokeColor=#000000;" parent="1" vertex="1">
                    <mxGeometry x="620" y="160" width="120" height="60" as="geometry"/>
                </mxCell>
                <mxCell id="18" value="" style="group" parent="1" vertex="1" connectable="0">
                    <mxGeometry x="420" y="60" width="150" height="90" as="geometry"/>
                </mxCell>
                <mxCell id="13" value="" style="rounded=0;whiteSpace=wrap;html=1;strokeColor=#000000;" parent="18" vertex="1">
                    <mxGeometry y="-10" width="150" height="90" as="geometry"/>
                </mxCell>
                <mxCell id="14" value="backup-restore-sidecar" style="text;html=1;strokeColor=none;fillColor=none;align=center;verticalAlign=middle;whiteSpace=wrap;rounded=0;" parent="18" vertex="1">
                    <mxGeometry y="-10" width="150" height="20" as="geometry"/>
                </mxCell>
                <mxCell id="5" value="rethinkdb" style="rounded=0;whiteSpace=wrap;html=1;strokeColor=#000000;" parent="18" vertex="1">
                    <mxGeometry x="6.5" y="10" width="120" height="60" as="geometry"/>
                </mxCell>
                <mxCell id="19" value="" style="group" parent="1" vertex="1" connectable="0">
                    <mxGeometry x="226.5" y="60" width="153.5" height="90" as="geometry"/>
                </mxCell>
                <mxCell id="15" value="" style="rounded=0;whiteSpace=wrap;html=1;strokeColor=#000000;" parent="19" vertex="1">
                    <mxGeometry y="-10" width="153.5" height="90" as="geometry"/>
                </mxCell>
                <mxCell id="16" value="backup-restore-sidecar" style="text;html=1;strokeColor=none;fillColor=none;align=center;verticalAlign=middle;whiteSpace=wrap;rounded=0;" parent="19" vertex="1">
                    <mxGeometry y="-10" width="153.5" height="20" as="geometry"/>
                </mxCell>
                <mxCell id="17" value="postgreSQL" style="rounded=0;whiteSpace=wrap;html=1;strokeColor=#000000;" parent="19" vertex="1">
                    <mxGeometry x="7.126785714285715" y="10" width="131.57142857142858" height="60" as="geometry"/>
                </mxCell>
                <mxCell id="25" style="edgeStyle=orthogonalEdgeStyle;rounded=0;orthogonalLoop=1;jettySize=auto;html=1;entryX=0;entryY=0.5;entryDx=0;entryDy=0;" parent="1" source="20" target="7" edge="1">
                    <mxGeometry relative="1" as="geometry">
                        <Array as="points">
                            <mxPoint x="20" y="300"/>
                            <mxPoint x="20" y="105"/>
                        </Array>
                    </mxGeometry>
                </mxCell>
                <mxCell id="31" style="edgeStyle=orthogonalEdgeStyle;rounded=0;orthogonalLoop=1;jettySize=auto;html=1;exitX=0.25;exitY=0;exitDx=0;exitDy=0;entryX=0.5;entryY=1;entryDx=0;entryDy=0;" parent="1" source="20" target="8" edge="1">
                    <mxGeometry relative="1" as="geometry">
                        <Array as="points">
                            <mxPoint x="360" y="270"/>
                            <mxPoint x="100" y="270"/>
                        </Array>
                    </mxGeometry>
                </mxCell>
                <mxCell id="32" style="edgeStyle=orthogonalEdgeStyle;rounded=0;orthogonalLoop=1;jettySize=auto;html=1;exitX=1;exitY=0.25;exitDx=0;exitDy=0;entryX=0.5;entryY=1;entryDx=0;entryDy=0;" parent="1" source="20" target="11" edge="1">
                    <mxGeometry relative="1" as="geometry">
                        <Array as="points">
                            <mxPoint x="680" y="305"/>
                        </Array>
                    </mxGeometry>
                </mxCell>
                <mxCell id="61" style="edgeStyle=orthogonalEdgeStyle;rounded=0;orthogonalLoop=1;jettySize=auto;html=1;exitX=0.75;exitY=0;exitDx=0;exitDy=0;" parent="1" source="20" target="4" edge="1">
                    <mxGeometry relative="1" as="geometry">
                        <Array as="points">
                            <mxPoint x="420" y="270"/>
                            <mxPoint x="490" y="270"/>
                        </Array>
                    </mxGeometry>
                </mxCell>
                <mxCell id="20" value="ingress-controller" style="rounded=0;whiteSpace=wrap;html=1;strokeColor=#000000;" parent="1" vertex="1">
                    <mxGeometry x="330" y="290" width="120" height="60" as="geometry"/>
                </mxCell>
                <mxCell id="37" style="edgeStyle=orthogonalEdgeStyle;rounded=0;orthogonalLoop=1;jettySize=auto;html=1;entryX=0.75;entryY=1;entryDx=0;entryDy=0;" parent="1" source="35" target="20" edge="1">
                    <mxGeometry relative="1" as="geometry"/>
                </mxCell>
                <mxCell id="35" value="metalctl" style="rounded=0;whiteSpace=wrap;html=1;strokeColor=#000000;" parent="1" vertex="1">
                    <mxGeometry x="580" y="360" width="120" height="60" as="geometry"/>
                </mxCell>
                <mxCell id="42" style="edgeStyle=orthogonalEdgeStyle;rounded=0;orthogonalLoop=1;jettySize=auto;html=1;entryX=0.5;entryY=1;entryDx=0;entryDy=0;" parent="1" source="39" target="20" edge="1">
                    <mxGeometry relative="1" as="geometry"/>
                </mxCell>
                <mxCell id="39" value="technical consumers" style="text;html=1;strokeColor=none;fillColor=none;align=center;verticalAlign=middle;whiteSpace=wrap;rounded=0;" parent="1" vertex="1">
                    <mxGeometry x="350" y="410" width="80" height="40" as="geometry"/>
                </mxCell>
                <mxCell id="44" value="to bmc-reverse-proxy" style="text;html=1;strokeColor=none;fillColor=none;align=center;verticalAlign=middle;whiteSpace=wrap;rounded=0;" parent="1" vertex="1">
                    <mxGeometry x="565" y="430" width="150" height="40" as="geometry"/>
                </mxCell>
                <mxCell id="45" value="TCP 4150" style="text;html=1;strokeColor=none;fillColor=none;align=center;verticalAlign=middle;whiteSpace=wrap;rounded=0;" parent="1" vertex="1">
                    <mxGeometry x="200" y="280" width="70" height="20" as="geometry"/>
                </mxCell>
                <mxCell id="48" value="TCP 4161" style="text;html=1;strokeColor=none;fillColor=none;align=center;verticalAlign=middle;whiteSpace=wrap;rounded=0;" parent="1" vertex="1">
                    <mxGeometry x="120" y="250" width="70" height="20" as="geometry"/>
                </mxCell>
                <mxCell id="49" value="TCP 443" style="text;html=1;strokeColor=none;fillColor=none;align=center;verticalAlign=middle;whiteSpace=wrap;rounded=0;" parent="1" vertex="1">
                    <mxGeometry x="420" y="250" width="70" height="20" as="geometry"/>
                </mxCell>
                <mxCell id="50" value="TCP 5222" style="text;html=1;strokeColor=none;fillColor=none;align=center;verticalAlign=middle;whiteSpace=wrap;rounded=0;" parent="1" vertex="1">
                    <mxGeometry x="590" y="284" width="70" height="20" as="geometry"/>
                </mxCell>
                <mxCell id="52" value="https://&amp;lt;domain&amp;gt;/metal" style="text;html=1;strokeColor=none;fillColor=none;align=center;verticalAlign=middle;whiteSpace=wrap;rounded=0;" parent="1" vertex="1">
                    <mxGeometry x="420" y="370" width="160" height="20" as="geometry"/>
                </mxCell>
                <mxCell id="58" value="metal-api" style="rounded=0;whiteSpace=wrap;html=1;strokeColor=#000000;" parent="1" vertex="1">
                    <mxGeometry x="438" y="152" width="120" height="60" as="geometry"/>
                </mxCell>
                <mxCell id="57" value="metal-api" style="rounded=0;whiteSpace=wrap;html=1;strokeColor=#000000;" parent="1" vertex="1">
                    <mxGeometry x="434" y="156" width="120" height="60" as="geometry"/>
                </mxCell>
                <mxCell id="4" value="metal-api" style="rounded=0;whiteSpace=wrap;html=1;strokeColor=#000000;" parent="1" vertex="1">
                    <mxGeometry x="430" y="160" width="120" height="60" as="geometry"/>
                </mxCell>
                <mxCell id="62" value="ssh &amp;lt;machine-uuid&amp;gt;@&amp;lt;domain&amp;gt;" style="text;html=1;strokeColor=none;fillColor=none;align=center;verticalAlign=middle;whiteSpace=wrap;rounded=0;" parent="1" vertex="1">
                    <mxGeometry x="140" y="370" width="217" height="20" as="geometry"/>
                </mxCell>
                <mxCell id="64" style="edgeStyle=orthogonalEdgeStyle;rounded=0;orthogonalLoop=1;jettySize=auto;html=1;entryX=0.25;entryY=1;entryDx=0;entryDy=0;" parent="1" source="63" target="20" edge="1">
                    <mxGeometry relative="1" as="geometry">
                        <mxPoint x="360" y="360" as="targetPoint"/>
                    </mxGeometry>
                </mxCell>
                <mxCell id="63" value="ssh" style="rounded=0;whiteSpace=wrap;html=1;strokeColor=#000000;" parent="1" vertex="1">
                    <mxGeometry x="10" y="360" width="120" height="60" as="geometry"/>
                </mxCell>
            </root>
        </mxGraphModel>
    </diagram>
    <diagram id="VyUhV91vSTbIGTij3O5A" name="partition">
        &#xa;        
        <mxGraphModel dx="1058" dy="566" grid="1" gridSize="10" guides="1" tooltips="1" connect="1" arrows="1" fold="1" page="1" pageScale="1" pageWidth="850" pageHeight="1100" math="0" shadow="0">
            &#xa;            
            <root>
                &#xa;                
                <mxCell id="ywvj-Q7v-2G2Xc7QTIPs-0"/>
                &#xa;                
                <mxCell id="ywvj-Q7v-2G2Xc7QTIPs-1" parent="ywvj-Q7v-2G2Xc7QTIPs-0"/>
                &#xa;                
                <mxCell id="RNizIJwNJn94aZfxMkWT-1" value="" style="group" parent="ywvj-Q7v-2G2Xc7QTIPs-1" vertex="1" connectable="0">
                    &#xa;                    
                    <mxGeometry x="70" y="70" width="750" height="400" as="geometry"/>
                    &#xa;                
                </mxCell>
                &#xa;                
                <mxCell id="WANYojdtdZmS-SHt-bUm-0" value="" style="rounded=0;whiteSpace=wrap;html=1;strokeColor=#000000;" parent="RNizIJwNJn94aZfxMkWT-1" vertex="1">
                    &#xa;                    
                    <mxGeometry width="750" height="400" as="geometry"/>
                    &#xa;                
                </mxCell>
                &#xa;                
                <mxCell id="WANYojdtdZmS-SHt-bUm-1" value="partition" style="text;html=1;strokeColor=#000000;fillColor=none;align=center;verticalAlign=middle;whiteSpace=wrap;rounded=0;" parent="RNizIJwNJn94aZfxMkWT-1" vertex="1">
                    &#xa;                    
                    <mxGeometry width="116.07142857142858" height="20" as="geometry"/>
                    &#xa;                
                </mxCell>
                &#xa;                
                <mxCell id="jLyoH8peMiYaMSglB3xI-24" value="" style="rounded=0;whiteSpace=wrap;html=1;strokeColor=#000000;" parent="RNizIJwNJn94aZfxMkWT-1" vertex="1">
                    &#xa;                    
                    <mxGeometry x="40" y="60" width="194.29" height="224.21052631578945" as="geometry"/>
                    &#xa;                
                </mxCell>
                &#xa;                
                <mxCell id="jLyoH8peMiYaMSglB3xI-47" value="" style="rounded=0;whiteSpace=wrap;html=1;strokeColor=#000000;" parent="RNizIJwNJn94aZfxMkWT-1" vertex="1">
                    &#xa;                    
                    <mxGeometry x="30" y="70" width="195.36" height="224.73684210526315" as="geometry"/>
                    &#xa;                
                </mxCell>
                &#xa;                
                <mxCell id="jLyoH8peMiYaMSglB3xI-48" value="management server" style="text;html=1;strokeColor=#000000;fillColor=none;align=center;verticalAlign=middle;whiteSpace=wrap;rounded=0;" parent="RNizIJwNJn94aZfxMkWT-1" vertex="1">
                    &#xa;                    
                    <mxGeometry x="30" y="70" width="125" height="20" as="geometry"/>
                    &#xa;                
                </mxCell>
                &#xa;                
                <mxCell id="jLyoH8peMiYaMSglB3xI-100" style="edgeStyle=orthogonalEdgeStyle;rounded=0;orthogonalLoop=1;jettySize=auto;html=1;exitX=0.5;exitY=1;exitDx=0;exitDy=0;entryX=0.5;entryY=0;entryDx=0;entryDy=0;" parent="RNizIJwNJn94aZfxMkWT-1" source="jLyoH8peMiYaMSglB3xI-49" target="jLyoH8peMiYaMSglB3xI-50" edge="1">
                    &#xa;                    
                    <mxGeometry relative="1" as="geometry"/>
                    &#xa;                
                </mxCell>
                &#xa;                
                <mxCell id="jLyoH8peMiYaMSglB3xI-49" value="bmc-reverse-proxy" style="rounded=0;whiteSpace=wrap;html=1;strokeColor=#000000;" parent="RNizIJwNJn94aZfxMkWT-1" vertex="1">
                    &#xa;                    
                    <mxGeometry x="41.43" y="100" width="128.57" height="30" as="geometry"/>
                    &#xa;                
                </mxCell>
                &#xa;                
                <mxCell id="jLyoH8peMiYaMSglB3xI-50" value="bmc-proxy" style="rounded=0;whiteSpace=wrap;html=1;strokeColor=#000000;" parent="RNizIJwNJn94aZfxMkWT-1" vertex="1">
                    &#xa;                    
                    <mxGeometry x="40" y="150" width="130" height="30" as="geometry"/>
                    &#xa;                
                </mxCell>
                &#xa;                
                <mxCell id="jLyoH8peMiYaMSglB3xI-51" value="ipmi-catcher" style="rounded=0;whiteSpace=wrap;html=1;strokeColor=#000000;" parent="RNizIJwNJn94aZfxMkWT-1" vertex="1">
                    &#xa;                    
                    <mxGeometry x="41.43" y="200" width="128.57" height="30" as="geometry"/>
                    &#xa;                
                </mxCell>
                &#xa;                
                <mxCell id="jLyoH8peMiYaMSglB3xI-52" value="image-cache" style="rounded=0;whiteSpace=wrap;html=1;strokeColor=#000000;" parent="RNizIJwNJn94aZfxMkWT-1" vertex="1">
                    &#xa;                    
                    <mxGeometry x="41.43" y="254.21052631578945" width="128.57" height="30" as="geometry"/>
                    &#xa;                
                </mxCell>
                &#xa;                
                <mxCell id="jLyoH8peMiYaMSglB3xI-72" value="" style="rounded=0;whiteSpace=wrap;html=1;strokeColor=#000000;" parent="RNizIJwNJn94aZfxMkWT-1" vertex="1">
                    &#xa;                    
                    <mxGeometry x="579.9971428571429" y="110" width="125" height="100" as="geometry"/>
                    &#xa;                
                </mxCell>
                &#xa;                
                <mxCell id="jLyoH8peMiYaMSglB3xI-77" value="" style="group" parent="RNizIJwNJn94aZfxMkWT-1" vertex="1" connectable="0">
                    &#xa;                    
                    <mxGeometry x="321.42857142857144" y="10" width="130" height="170" as="geometry"/>
                    &#xa;                
                </mxCell>
                &#xa;                
                <mxCell id="RNizIJwNJn94aZfxMkWT-2" value="" style="rounded=0;whiteSpace=wrap;html=1;strokeColor=#000000;" parent="jLyoH8peMiYaMSglB3xI-77" vertex="1">
                    &#xa;                    
                    <mxGeometry width="130" height="170" as="geometry"/>
                    &#xa;                
                </mxCell>
                &#xa;                
                <mxCell id="RNizIJwNJn94aZfxMkWT-3" value="leaf 01" style="text;html=1;strokeColor=#000000;fillColor=none;align=center;verticalAlign=middle;whiteSpace=wrap;rounded=0;" parent="jLyoH8peMiYaMSglB3xI-77" vertex="1">
                    &#xa;                    
                    <mxGeometry width="71.42857142857143" height="20" as="geometry"/>
                    &#xa;                
                </mxCell>
                &#xa;                
                <mxCell id="jLyoH8peMiYaMSglB3xI-0" value="metal-core" style="rounded=0;whiteSpace=wrap;html=1;strokeColor=#000000;" parent="jLyoH8peMiYaMSglB3xI-77" vertex="1">
                    &#xa;                    
                    <mxGeometry x="8.928571428571429" y="30" width="107.14285714285715" height="60" as="geometry"/>
                    &#xa;                
                </mxCell>
                &#xa;                
                <mxCell id="jLyoH8peMiYaMSglB3xI-2" value="pixiecore" style="rounded=0;whiteSpace=wrap;html=1;strokeColor=#000000;" parent="jLyoH8peMiYaMSglB3xI-77" vertex="1">
                    &#xa;                    
                    <mxGeometry x="8.928571428571429" y="100" width="107.14285714285715" height="60" as="geometry"/>
                    &#xa;                
                </mxCell>
                &#xa;                
                <mxCell id="jLyoH8peMiYaMSglB3xI-78" value="" style="group" parent="RNizIJwNJn94aZfxMkWT-1" vertex="1" connectable="0">
                    &#xa;                    
                    <mxGeometry x="321.42857142857144" y="190" width="130" height="170" as="geometry"/>
                    &#xa;                
                </mxCell>
                &#xa;                
                <mxCell id="jLyoH8peMiYaMSglB3xI-7" value="" style="rounded=0;whiteSpace=wrap;html=1;strokeColor=#000000;" parent="jLyoH8peMiYaMSglB3xI-78" vertex="1">
                    &#xa;                    
                    <mxGeometry width="130" height="170" as="geometry"/>
                    &#xa;                
                </mxCell>
                &#xa;                
                <mxCell id="jLyoH8peMiYaMSglB3xI-8" value="leaf 02" style="text;html=1;strokeColor=#000000;fillColor=none;align=center;verticalAlign=middle;whiteSpace=wrap;rounded=0;" parent="jLyoH8peMiYaMSglB3xI-78" vertex="1">
                    &#xa;                    
                    <mxGeometry width="71.42857142857143" height="20" as="geometry"/>
                    &#xa;                
                </mxCell>
                &#xa;                
                <mxCell id="jLyoH8peMiYaMSglB3xI-9" value="metal-core" style="rounded=0;whiteSpace=wrap;html=1;strokeColor=#000000;" parent="jLyoH8peMiYaMSglB3xI-78" vertex="1">
                    &#xa;                    
                    <mxGeometry x="8.928571428571429" y="30" width="107.14285714285715" height="60" as="geometry"/>
                    &#xa;                
                </mxCell>
                &#xa;                
                <mxCell id="jLyoH8peMiYaMSglB3xI-10" value="pixiecore" style="rounded=0;whiteSpace=wrap;html=1;strokeColor=#000000;" parent="jLyoH8peMiYaMSglB3xI-78" vertex="1">
                    &#xa;                    
                    <mxGeometry x="8.928571428571429" y="100" width="107.14285714285715" height="60" as="geometry"/>
                    &#xa;                
                </mxCell>
                &#xa;                
                <mxCell id="jLyoH8peMiYaMSglB3xI-79" value="" style="rounded=0;whiteSpace=wrap;html=1;strokeColor=#000000;" parent="ywvj-Q7v-2G2Xc7QTIPs-1" vertex="1">
                    &#xa;                    
                    <mxGeometry x="660" y="190" width="140" height="100" as="geometry"/>
                    &#xa;                
                </mxCell>
                &#xa;                
                <mxCell id="jLyoH8peMiYaMSglB3xI-81" value="metal-hammer" style="rounded=0;whiteSpace=wrap;html=1;strokeColor=#000000;" parent="ywvj-Q7v-2G2Xc7QTIPs-1" vertex="1">
                    &#xa;                    
                    <mxGeometry x="670" y="220" width="120" height="60" as="geometry"/>
                    &#xa;                
                </mxCell>
                &#xa;                
                <mxCell id="jLyoH8peMiYaMSglB3xI-82" value="" style="rounded=0;whiteSpace=wrap;html=1;strokeColor=#000000;" parent="ywvj-Q7v-2G2Xc7QTIPs-1" vertex="1">
                    &#xa;                    
                    <mxGeometry x="670" y="200" width="140" height="100" as="geometry"/>
                    &#xa;                
                </mxCell>
                &#xa;                
                <mxCell id="jLyoH8peMiYaMSglB3xI-83" value="machine" style="text;html=1;strokeColor=#000000;fillColor=none;align=center;verticalAlign=middle;whiteSpace=wrap;rounded=0;" parent="ywvj-Q7v-2G2Xc7QTIPs-1" vertex="1">
                    &#xa;                    
                    <mxGeometry x="670" y="200" width="80" height="20" as="geometry"/>
                    &#xa;                
                </mxCell>
                &#xa;                
                <mxCell id="jLyoH8peMiYaMSglB3xI-94" style="edgeStyle=orthogonalEdgeStyle;rounded=0;orthogonalLoop=1;jettySize=auto;html=1;exitX=0;exitY=0.25;exitDx=0;exitDy=0;entryX=1;entryY=0.5;entryDx=0;entryDy=0;" parent="ywvj-Q7v-2G2Xc7QTIPs-1" source="jLyoH8peMiYaMSglB3xI-84" target="jLyoH8peMiYaMSglB3xI-0" edge="1">
                    &#xa;                    
                    <mxGeometry relative="1" as="geometry"/>
                    &#xa;                
                </mxCell>
                &#xa;                
                <mxCell id="jLyoH8peMiYaMSglB3xI-96" style="edgeStyle=orthogonalEdgeStyle;rounded=0;orthogonalLoop=1;jettySize=auto;html=1;exitX=0;exitY=0.5;exitDx=0;exitDy=0;" parent="ywvj-Q7v-2G2Xc7QTIPs-1" source="jLyoH8peMiYaMSglB3xI-84" edge="1">
                    &#xa;                    
                    <mxGeometry relative="1" as="geometry">
                        &#xa;                        
                        <mxPoint x="508" y="210" as="targetPoint"/>
                        &#xa;                        
                        <Array as="points">
                            &#xa;                            
                            <mxPoint x="570" y="260"/>
                            &#xa;                            
                            <mxPoint x="570" y="210"/>
                            &#xa;                        
                        </Array>
                        &#xa;                    
                    </mxGeometry>
                    &#xa;                
                </mxCell>
                &#xa;                
                <mxCell id="jLyoH8peMiYaMSglB3xI-101" style="edgeStyle=orthogonalEdgeStyle;rounded=0;orthogonalLoop=1;jettySize=auto;html=1;entryX=0.5;entryY=1;entryDx=0;entryDy=0;exitX=0.75;exitY=1;exitDx=0;exitDy=0;" parent="ywvj-Q7v-2G2Xc7QTIPs-1" source="jLyoH8peMiYaMSglB3xI-84" target="jLyoH8peMiYaMSglB3xI-52" edge="1">
                    &#xa;                    
                    <mxGeometry relative="1" as="geometry">
                        &#xa;                        
                        <mxPoint x="740" y="350" as="sourcePoint"/>
                        &#xa;                        
                        <Array as="points">
                            &#xa;                            
                            <mxPoint x="770" y="460"/>
                            &#xa;                            
                            <mxPoint x="176" y="460"/>
                            &#xa;                        
                        </Array>
                        &#xa;                    
                    </mxGeometry>
                    &#xa;                
                </mxCell>
                &#xa;                
                <mxCell id="jLyoH8peMiYaMSglB3xI-106" style="edgeStyle=orthogonalEdgeStyle;rounded=0;orthogonalLoop=1;jettySize=auto;html=1;exitX=0;exitY=0.75;exitDx=0;exitDy=0;entryX=1;entryY=0.5;entryDx=0;entryDy=0;dashed=1;" parent="ywvj-Q7v-2G2Xc7QTIPs-1" source="jLyoH8peMiYaMSglB3xI-84" target="jLyoH8peMiYaMSglB3xI-9" edge="1">
                    &#xa;                    
                    <mxGeometry relative="1" as="geometry">
                        &#xa;                        
                        <Array as="points">
                            &#xa;                            
                            <mxPoint x="570" y="275"/>
                            &#xa;                            
                            <mxPoint x="570" y="320"/>
                            &#xa;                        
                        </Array>
                        &#xa;                    
                    </mxGeometry>
                    &#xa;                
                </mxCell>
                &#xa;                
                <mxCell id="jLyoH8peMiYaMSglB3xI-107" style="edgeStyle=orthogonalEdgeStyle;rounded=0;orthogonalLoop=1;jettySize=auto;html=1;exitX=0;exitY=0.75;exitDx=0;exitDy=0;entryX=1;entryY=0.5;entryDx=0;entryDy=0;dashed=1;" parent="ywvj-Q7v-2G2Xc7QTIPs-1" source="jLyoH8peMiYaMSglB3xI-84" target="jLyoH8peMiYaMSglB3xI-10" edge="1">
                    &#xa;                    
                    <mxGeometry relative="1" as="geometry"/>
                    &#xa;                
                </mxCell>
                &#xa;                
                <mxCell id="jLyoH8peMiYaMSglB3xI-84" value="metal-hammer" style="rounded=0;whiteSpace=wrap;html=1;strokeColor=#000000;" parent="ywvj-Q7v-2G2Xc7QTIPs-1" vertex="1">
                    &#xa;                    
                    <mxGeometry x="680" y="230" width="120" height="60" as="geometry"/>
                    &#xa;                
                </mxCell>
                &#xa;                
                <mxCell id="jLyoH8peMiYaMSglB3xI-91" value="to metal-api" style="text;html=1;strokeColor=none;fillColor=none;align=center;verticalAlign=middle;whiteSpace=wrap;rounded=0;" parent="ywvj-Q7v-2G2Xc7QTIPs-1" vertex="1">
                    &#xa;                    
                    <mxGeometry x="330" y="20" width="80" height="20" as="geometry"/>
                    &#xa;                
                </mxCell>
                &#xa;                
                <mxCell id="jLyoH8peMiYaMSglB3xI-92" style="edgeStyle=orthogonalEdgeStyle;rounded=0;orthogonalLoop=1;jettySize=auto;html=1;exitX=0;exitY=0.5;exitDx=0;exitDy=0;entryX=0.25;entryY=1;entryDx=0;entryDy=0;" parent="ywvj-Q7v-2G2Xc7QTIPs-1" source="jLyoH8peMiYaMSglB3xI-0" target="jLyoH8peMiYaMSglB3xI-91" edge="1">
                    &#xa;                    
                    <mxGeometry relative="1" as="geometry"/>
                    &#xa;                
                </mxCell>
                &#xa;                
                <mxCell id="jLyoH8peMiYaMSglB3xI-93" style="edgeStyle=orthogonalEdgeStyle;rounded=0;orthogonalLoop=1;jettySize=auto;html=1;exitX=0;exitY=0.5;exitDx=0;exitDy=0;entryX=0.5;entryY=1;entryDx=0;entryDy=0;" parent="ywvj-Q7v-2G2Xc7QTIPs-1" source="jLyoH8peMiYaMSglB3xI-9" target="jLyoH8peMiYaMSglB3xI-91" edge="1">
                    &#xa;                    
                    <mxGeometry relative="1" as="geometry">
                        &#xa;                        
                        <mxPoint x="360" y="40" as="targetPoint"/>
                        &#xa;                    
                    </mxGeometry>
                    &#xa;                
                </mxCell>
                &#xa;                
                <mxCell id="jLyoH8peMiYaMSglB3xI-99" style="edgeStyle=orthogonalEdgeStyle;rounded=0;orthogonalLoop=1;jettySize=auto;html=1;exitX=0.5;exitY=1;exitDx=0;exitDy=0;entryX=1;entryY=0.5;entryDx=0;entryDy=0;" parent="ywvj-Q7v-2G2Xc7QTIPs-1" source="jLyoH8peMiYaMSglB3xI-98" target="jLyoH8peMiYaMSglB3xI-49" edge="1">
                    &#xa;                    
                    <mxGeometry relative="1" as="geometry"/>
                    &#xa;                
                </mxCell>
                &#xa;                
                <mxCell id="jLyoH8peMiYaMSglB3xI-98" value="metal-console" style="text;html=1;strokeColor=none;fillColor=none;align=center;verticalAlign=middle;whiteSpace=wrap;rounded=0;" parent="ywvj-Q7v-2G2Xc7QTIPs-1" vertex="1">
                    &#xa;                    
                    <mxGeometry x="220" y="20" width="90" height="20" as="geometry"/>
                    &#xa;                
                </mxCell>
                &#xa;                
                <mxCell id="jLyoH8peMiYaMSglB3xI-102" value="public image store" style="text;html=1;strokeColor=none;fillColor=none;align=center;verticalAlign=middle;whiteSpace=wrap;rounded=0;" parent="ywvj-Q7v-2G2Xc7QTIPs-1" vertex="1">
                    &#xa;                    
                    <mxGeometry y="10" width="90" height="40" as="geometry"/>
                    &#xa;                
                </mxCell>
                &#xa;                
                <mxCell id="jLyoH8peMiYaMSglB3xI-103" style="edgeStyle=orthogonalEdgeStyle;rounded=0;orthogonalLoop=1;jettySize=auto;html=1;exitX=0;exitY=0.5;exitDx=0;exitDy=0;entryX=0.5;entryY=1;entryDx=0;entryDy=0;" parent="ywvj-Q7v-2G2Xc7QTIPs-1" source="jLyoH8peMiYaMSglB3xI-52" target="jLyoH8peMiYaMSglB3xI-102" edge="1">
                    &#xa;                    
                    <mxGeometry relative="1" as="geometry"/>
                    &#xa;                
                </mxCell>
                &#xa;                
                <mxCell id="jLyoH8peMiYaMSglB3xI-104" style="edgeStyle=orthogonalEdgeStyle;rounded=0;orthogonalLoop=1;jettySize=auto;html=1;exitX=1;exitY=0.5;exitDx=0;exitDy=0;" parent="ywvj-Q7v-2G2Xc7QTIPs-1" source="jLyoH8peMiYaMSglB3xI-50" edge="1">
                    &#xa;                    
                    <mxGeometry relative="1" as="geometry">
                        &#xa;                        
                        <mxPoint x="740" y="290" as="targetPoint"/>
                        &#xa;                        
                        <Array as="points">
                            &#xa;                            
                            <mxPoint x="330" y="235"/>
                            &#xa;                            
                            <mxPoint x="330" y="450"/>
                            &#xa;                            
                            <mxPoint x="740" y="450"/>
                            &#xa;                        
                        </Array>
                        &#xa;                    
                    </mxGeometry>
                    &#xa;                
                </mxCell>
                &#xa;                
                <mxCell id="jLyoH8peMiYaMSglB3xI-105" style="edgeStyle=orthogonalEdgeStyle;rounded=0;orthogonalLoop=1;jettySize=auto;html=1;exitX=1;exitY=0.5;exitDx=0;exitDy=0;entryX=0.25;entryY=1;entryDx=0;entryDy=0;" parent="ywvj-Q7v-2G2Xc7QTIPs-1" source="jLyoH8peMiYaMSglB3xI-51" target="jLyoH8peMiYaMSglB3xI-84" edge="1">
                    &#xa;                    
                    <mxGeometry relative="1" as="geometry">
                        &#xa;                        
                        <Array as="points">
                            &#xa;                            
                            <mxPoint x="320" y="285"/>
                            &#xa;                            
                            <mxPoint x="320" y="440"/>
                            &#xa;                            
                            <mxPoint x="710" y="440"/>
                            &#xa;                        
                        </Array>
                        &#xa;                    
                    </mxGeometry>
                    &#xa;                
                </mxCell>
                &#xa;            
            </root>
            &#xa;        
        </mxGraphModel>
        &#xa;    
    </diagram>
    <diagram id="Hn-sec0ZUFem5Dy0r5rS" name="stack">
        &#xa;        
        <mxGraphModel dx="1058" dy="566" grid="1" gridSize="10" guides="1" tooltips="1" connect="1" arrows="1" fold="1" page="1" pageScale="1" pageWidth="850" pageHeight="1100" math="0" shadow="0">
            &#xa;            
            <root>
                &#xa;                
                <mxCell id="U2-aph71bNiYgAWNrc4_-0"/>
                &#xa;                
                <mxCell id="U2-aph71bNiYgAWNrc4_-1" parent="U2-aph71bNiYgAWNrc4_-0"/>
                &#xa;                
                <mxCell id="n2IQy2kSPn2QEERRhZmL-0" value="" style="rounded=0;whiteSpace=wrap;html=1;strokeColor=#000000;" vertex="1" parent="U2-aph71bNiYgAWNrc4_-1">
                    &#xa;                    
                    <mxGeometry x="250" y="40" width="320" height="110" as="geometry"/>
                    &#xa;                
                </mxCell>
                &#xa;                
                <mxCell id="n2IQy2kSPn2QEERRhZmL-1" value="metal-control-plane" style="text;html=1;strokeColor=#000000;fillColor=none;align=center;verticalAlign=middle;whiteSpace=wrap;rounded=0;" vertex="1" parent="U2-aph71bNiYgAWNrc4_-1">
                    &#xa;                    
                    <mxGeometry x="250" y="40" width="130" height="20" as="geometry"/>
                    &#xa;                
                </mxCell>
                &#xa;                
                <mxCell id="ZgkB_sveHMkoZWatFV5j-0" value="metal-api / nsq" style="rounded=0;whiteSpace=wrap;html=1;strokeColor=#000000;" vertex="1" parent="U2-aph71bNiYgAWNrc4_-1">
                    &#xa;                    
                    <mxGeometry x="280" y="80" width="120" height="60" as="geometry"/>
                    &#xa;                
                </mxCell>
                &#xa;                
                <mxCell id="ZgkB_sveHMkoZWatFV5j-1" value="" style="rounded=0;whiteSpace=wrap;html=1;strokeColor=#000000;" vertex="1" parent="U2-aph71bNiYgAWNrc4_-1">
                    &#xa;                    
                    <mxGeometry x="200" y="220" width="150" height="180" as="geometry"/>
                    &#xa;                
                </mxCell>
                &#xa;                
                <mxCell id="ZgkB_sveHMkoZWatFV5j-2" value="partition" style="text;html=1;strokeColor=#000000;fillColor=none;align=center;verticalAlign=middle;whiteSpace=wrap;rounded=0;" vertex="1" parent="U2-aph71bNiYgAWNrc4_-1">
                    &#xa;                    
                    <mxGeometry x="200" y="220" width="130" height="20" as="geometry"/>
                    &#xa;                
                </mxCell>
                &#xa;                
                <mxCell id="zXk-ye4kIf2SyK7WKDm_-8" style="edgeStyle=orthogonalEdgeStyle;rounded=0;orthogonalLoop=1;jettySize=auto;html=1;exitX=1;exitY=0.5;exitDx=0;exitDy=0;entryX=0.25;entryY=1;entryDx=0;entryDy=0;fillColor=#008a00;strokeColor=#005700;" edge="1" parent="U2-aph71bNiYgAWNrc4_-1" source="ZgkB_sveHMkoZWatFV5j-3" target="ZgkB_sveHMkoZWatFV5j-0">
                    &#xa;                    
                    <mxGeometry relative="1" as="geometry">
                        &#xa;                        
                        <Array as="points">
                            &#xa;                            
                            <mxPoint x="360" y="290"/>
                            &#xa;                            
                            <mxPoint x="360" y="200"/>
                            &#xa;                            
                            <mxPoint x="310" y="200"/>
                            &#xa;                        
                        </Array>
                        &#xa;                    
                    </mxGeometry>
                    &#xa;                
                </mxCell>
                &#xa;                
                <mxCell id="ZgkB_sveHMkoZWatFV5j-3" value="metal-core" style="rounded=0;whiteSpace=wrap;html=1;strokeColor=#000000;" vertex="1" parent="U2-aph71bNiYgAWNrc4_-1">
                    &#xa;                    
                    <mxGeometry x="215" y="260" width="120" height="60" as="geometry"/>
                    &#xa;                
                </mxCell>
                &#xa;                
                <mxCell id="zXk-ye4kIf2SyK7WKDm_-11" style="edgeStyle=orthogonalEdgeStyle;rounded=0;orthogonalLoop=1;jettySize=auto;html=1;exitX=0;exitY=0.5;exitDx=0;exitDy=0;entryX=1;entryY=0.5;entryDx=0;entryDy=0;" edge="1" parent="U2-aph71bNiYgAWNrc4_-1" source="ZgkB_sveHMkoZWatFV5j-4" target="ZgkB_sveHMkoZWatFV5j-0">
                    &#xa;                    
                    <mxGeometry relative="1" as="geometry"/>
                    &#xa;                
                </mxCell>
                &#xa;                
                <mxCell id="zXk-ye4kIf2SyK7WKDm_-14" style="edgeStyle=orthogonalEdgeStyle;rounded=0;orthogonalLoop=1;jettySize=auto;html=1;exitX=0.25;exitY=1;exitDx=0;exitDy=0;entryX=1;entryY=0.5;entryDx=0;entryDy=0;fillColor=#a20025;strokeColor=#6F0000;" edge="1" parent="U2-aph71bNiYgAWNrc4_-1" source="ZgkB_sveHMkoZWatFV5j-4" target="ZgkB_sveHMkoZWatFV5j-5">
                    &#xa;                    
                    <mxGeometry relative="1" as="geometry">
                        &#xa;                        
                        <Array as="points">
                            &#xa;                            
                            <mxPoint x="450" y="210"/>
                            &#xa;                            
                            <mxPoint x="380" y="210"/>
                            &#xa;                            
                            <mxPoint x="380" y="360"/>
                            &#xa;                        
                        </Array>
                        &#xa;                    
                    </mxGeometry>
                    &#xa;                
                </mxCell>
                &#xa;                
                <mxCell id="ZgkB_sveHMkoZWatFV5j-4" value="metal-console" style="rounded=0;whiteSpace=wrap;html=1;strokeColor=#000000;" vertex="1" parent="U2-aph71bNiYgAWNrc4_-1">
                    &#xa;                    
                    <mxGeometry x="420" y="80" width="120" height="60" as="geometry"/>
                    &#xa;                
                </mxCell>
                &#xa;                
                <mxCell id="ZgkB_sveHMkoZWatFV5j-5" value="bmc-reverse-proxy" style="rounded=0;whiteSpace=wrap;html=1;strokeColor=#000000;" vertex="1" parent="U2-aph71bNiYgAWNrc4_-1">
                    &#xa;                    
                    <mxGeometry x="215" y="330" width="120" height="60" as="geometry"/>
                    &#xa;                
                </mxCell>
                &#xa;                
                <mxCell id="zXk-ye4kIf2SyK7WKDm_-0" value="" style="rounded=0;whiteSpace=wrap;html=1;strokeColor=#000000;" vertex="1" parent="U2-aph71bNiYgAWNrc4_-1">
                    &#xa;                    
                    <mxGeometry x="390" y="220" width="150" height="180" as="geometry"/>
                    &#xa;                
                </mxCell>
                &#xa;                
                <mxCell id="zXk-ye4kIf2SyK7WKDm_-1" value="partition" style="text;html=1;strokeColor=#000000;fillColor=none;align=center;verticalAlign=middle;whiteSpace=wrap;rounded=0;" vertex="1" parent="U2-aph71bNiYgAWNrc4_-1">
                    &#xa;                    
                    <mxGeometry x="390" y="220" width="130" height="20" as="geometry"/>
                    &#xa;                
                </mxCell>
                &#xa;                
                <mxCell id="zXk-ye4kIf2SyK7WKDm_-9" style="edgeStyle=orthogonalEdgeStyle;rounded=0;orthogonalLoop=1;jettySize=auto;html=1;entryX=0.5;entryY=1;entryDx=0;entryDy=0;fillColor=#008a00;strokeColor=#005700;" edge="1" parent="U2-aph71bNiYgAWNrc4_-1" source="zXk-ye4kIf2SyK7WKDm_-2" target="ZgkB_sveHMkoZWatFV5j-0">
                    &#xa;                    
                    <mxGeometry relative="1" as="geometry">
                        &#xa;                        
                        <Array as="points">
                            &#xa;                            
                            <mxPoint x="370" y="290"/>
                            &#xa;                            
                            <mxPoint x="370" y="180"/>
                            &#xa;                            
                            <mxPoint x="340" y="180"/>
                            &#xa;                        
                        </Array>
                        &#xa;                    
                    </mxGeometry>
                    &#xa;                
                </mxCell>
                &#xa;                
                <mxCell id="zXk-ye4kIf2SyK7WKDm_-2" value="metal-core" style="rounded=0;whiteSpace=wrap;html=1;strokeColor=#000000;" vertex="1" parent="U2-aph71bNiYgAWNrc4_-1">
                    &#xa;                    
                    <mxGeometry x="405" y="260" width="120" height="60" as="geometry"/>
                    &#xa;                
                </mxCell>
                &#xa;                
                <mxCell id="zXk-ye4kIf2SyK7WKDm_-3" value="bmc-reverse-proxy" style="rounded=0;whiteSpace=wrap;html=1;strokeColor=#000000;" vertex="1" parent="U2-aph71bNiYgAWNrc4_-1">
                    &#xa;                    
                    <mxGeometry x="405" y="330" width="120" height="60" as="geometry"/>
                    &#xa;                
                </mxCell>
                &#xa;                
                <mxCell id="zXk-ye4kIf2SyK7WKDm_-4" value="" style="rounded=0;whiteSpace=wrap;html=1;strokeColor=#000000;" vertex="1" parent="U2-aph71bNiYgAWNrc4_-1">
                    &#xa;                    
                    <mxGeometry x="580" y="220" width="150" height="180" as="geometry"/>
                    &#xa;                
                </mxCell>
                &#xa;                
                <mxCell id="zXk-ye4kIf2SyK7WKDm_-5" value="partition" style="text;html=1;strokeColor=#000000;fillColor=none;align=center;verticalAlign=middle;whiteSpace=wrap;rounded=0;" vertex="1" parent="U2-aph71bNiYgAWNrc4_-1">
                    &#xa;                    
                    <mxGeometry x="580" y="220" width="130" height="20" as="geometry"/>
                    &#xa;                
                </mxCell>
                &#xa;                
                <mxCell id="zXk-ye4kIf2SyK7WKDm_-10" style="edgeStyle=orthogonalEdgeStyle;rounded=0;orthogonalLoop=1;jettySize=auto;html=1;entryX=0.75;entryY=1;entryDx=0;entryDy=0;fillColor=#008a00;strokeColor=#005700;" edge="1" parent="U2-aph71bNiYgAWNrc4_-1" source="zXk-ye4kIf2SyK7WKDm_-6" target="ZgkB_sveHMkoZWatFV5j-0">
                    &#xa;                    
                    <mxGeometry relative="1" as="geometry">
                        &#xa;                        
                        <mxPoint x="390" y="160" as="targetPoint"/>
                        &#xa;                        
                        <Array as="points">
                            &#xa;                            
                            <mxPoint x="570" y="290"/>
                            &#xa;                            
                            <mxPoint x="570" y="170"/>
                            &#xa;                            
                            <mxPoint x="370" y="170"/>
                            &#xa;                        
                        </Array>
                        &#xa;                    
                    </mxGeometry>
                    &#xa;                
                </mxCell>
                &#xa;                
                <mxCell id="zXk-ye4kIf2SyK7WKDm_-6" value="metal-core" style="rounded=0;whiteSpace=wrap;html=1;strokeColor=#000000;" vertex="1" parent="U2-aph71bNiYgAWNrc4_-1">
                    &#xa;                    
                    <mxGeometry x="595" y="260" width="120" height="60" as="geometry"/>
                    &#xa;                
                </mxCell>
                &#xa;                
                <mxCell id="zXk-ye4kIf2SyK7WKDm_-7" value="bmc-reverse-proxy" style="rounded=0;whiteSpace=wrap;html=1;strokeColor=#000000;" vertex="1" parent="U2-aph71bNiYgAWNrc4_-1">
                    &#xa;                    
                    <mxGeometry x="595" y="330" width="120" height="60" as="geometry"/>
                    &#xa;                
                </mxCell>
                &#xa;                
                <mxCell id="zXk-ye4kIf2SyK7WKDm_-12" style="edgeStyle=orthogonalEdgeStyle;rounded=0;orthogonalLoop=1;jettySize=auto;html=1;exitX=0.5;exitY=1;exitDx=0;exitDy=0;entryX=1;entryY=0.5;entryDx=0;entryDy=0;fillColor=#a20025;strokeColor=#6F0000;" edge="1" parent="U2-aph71bNiYgAWNrc4_-1" source="ZgkB_sveHMkoZWatFV5j-4" target="zXk-ye4kIf2SyK7WKDm_-3">
                    &#xa;                    
                    <mxGeometry relative="1" as="geometry">
                        &#xa;                        
                        <Array as="points">
                            &#xa;                            
                            <mxPoint x="480" y="200"/>
                            &#xa;                            
                            <mxPoint x="545" y="200"/>
                            &#xa;                            
                            <mxPoint x="545" y="360"/>
                            &#xa;                        
                        </Array>
                        &#xa;                    
                    </mxGeometry>
                    &#xa;                
                </mxCell>
                &#xa;                
                <mxCell id="zXk-ye4kIf2SyK7WKDm_-13" style="edgeStyle=orthogonalEdgeStyle;rounded=0;orthogonalLoop=1;jettySize=auto;html=1;exitX=0.75;exitY=1;exitDx=0;exitDy=0;entryX=0;entryY=0.5;entryDx=0;entryDy=0;fillColor=#a20025;strokeColor=#6F0000;" edge="1" parent="U2-aph71bNiYgAWNrc4_-1" source="ZgkB_sveHMkoZWatFV5j-4" target="zXk-ye4kIf2SyK7WKDm_-7">
                    &#xa;                    
                    <mxGeometry relative="1" as="geometry">
                        &#xa;                        
                        <Array as="points">
                            &#xa;                            
                            <mxPoint x="510" y="190"/>
                            &#xa;                            
                            <mxPoint x="560" y="190"/>
                            &#xa;                            
                            <mxPoint x="560" y="360"/>
                            &#xa;                        
                        </Array>
                        &#xa;                    
                    </mxGeometry>
                    &#xa;                
                </mxCell>
                &#xa;            
            </root>
            &#xa;        
        </mxGraphModel>
        &#xa;    
    </diagram>
    <diagram id="a6_nJs2CwEz5uSGWAHJH" name="boot sequence">
        <mxGraphModel dx="882" dy="472" grid="1" gridSize="10" guides="1" tooltips="1" connect="1" arrows="1" fold="1" page="1" pageScale="1" pageWidth="850" pageHeight="1100" math="0" shadow="0">
            <root>
                <mxCell id="XJTI1ORzcmVS8ecLJIW--0"/>
                <mxCell id="XJTI1ORzcmVS8ecLJIW--1" parent="XJTI1ORzcmVS8ecLJIW--0"/>
                <mxCell id="XJTI1ORzcmVS8ecLJIW--122" value="done" style="shape=umlFrame;whiteSpace=wrap;html=1;" vertex="1" parent="XJTI1ORzcmVS8ecLJIW--1">
                    <mxGeometry y="1130" width="740" height="100" as="geometry"/>
                </mxCell>
                <mxCell id="XJTI1ORzcmVS8ecLJIW--77" value="install" style="shape=umlFrame;whiteSpace=wrap;html=1;" vertex="1" parent="XJTI1ORzcmVS8ecLJIW--1">
                    <mxGeometry y="621" width="900" height="499" as="geometry"/>
                </mxCell>
                <mxCell id="XJTI1ORzcmVS8ecLJIW--79" value="wait" style="shape=umlFrame;whiteSpace=wrap;html=1;" vertex="1" parent="XJTI1ORzcmVS8ecLJIW--1">
                    <mxGeometry x="140" y="650" width="750" height="150" as="geometry"/>
                </mxCell>
                <mxCell id="XJTI1ORzcmVS8ecLJIW--69" value="register" style="shape=umlFrame;whiteSpace=wrap;html=1;" vertex="1" parent="XJTI1ORzcmVS8ecLJIW--1">
                    <mxGeometry y="510" width="740" height="100" as="geometry"/>
                </mxCell>
                <mxCell id="XJTI1ORzcmVS8ecLJIW--36" value="prepare" style="shape=umlFrame;whiteSpace=wrap;html=1;" vertex="1" parent="XJTI1ORzcmVS8ecLJIW--1">
                    <mxGeometry y="300" width="740" height="200" as="geometry"/>
                </mxCell>
                <mxCell id="XJTI1ORzcmVS8ecLJIW--35" value="pxe" style="shape=umlFrame;whiteSpace=wrap;html=1;" vertex="1" parent="XJTI1ORzcmVS8ecLJIW--1">
                    <mxGeometry y="90" width="740" height="200" as="geometry"/>
                </mxCell>
                <mxCell id="XJTI1ORzcmVS8ecLJIW--13" value="switch" style="shape=umlLifeline;perimeter=lifelinePerimeter;whiteSpace=wrap;html=1;container=1;collapsible=0;recursiveResize=0;outlineConnect=0;" vertex="1" parent="XJTI1ORzcmVS8ecLJIW--1">
                    <mxGeometry x="540" y="40" width="100" height="1200" as="geometry"/>
                </mxCell>
                <mxCell id="XJTI1ORzcmVS8ecLJIW--21" value="" style="html=1;points=[];perimeter=orthogonalPerimeter;" vertex="1" parent="XJTI1ORzcmVS8ecLJIW--13">
                    <mxGeometry x="160" y="121" width="10" height="50" as="geometry"/>
                </mxCell>
                <mxCell id="XJTI1ORzcmVS8ecLJIW--9" value="" style="shape=umlLifeline;participant=umlActor;perimeter=lifelinePerimeter;whiteSpace=wrap;html=1;container=1;collapsible=0;recursiveResize=0;verticalAlign=top;spacingTop=36;labelBackgroundColor=#ffffff;outlineConnect=0;" vertex="1" parent="XJTI1ORzcmVS8ecLJIW--1">
                    <mxGeometry x="800" y="40" width="20" height="1200" as="geometry"/>
                </mxCell>
                <mxCell id="XJTI1ORzcmVS8ecLJIW--14" value="metal-api" style="shape=umlLifeline;perimeter=lifelinePerimeter;whiteSpace=wrap;html=1;container=1;collapsible=0;recursiveResize=0;outlineConnect=0;" vertex="1" parent="XJTI1ORzcmVS8ecLJIW--1">
                    <mxGeometry x="660" y="40" width="100" height="1200" as="geometry"/>
                </mxCell>
                <mxCell id="XJTI1ORzcmVS8ecLJIW--83" value="" style="html=1;points=[];perimeter=orthogonalPerimeter;" vertex="1" parent="XJTI1ORzcmVS8ecLJIW--14">
                    <mxGeometry x="40" y="650" width="10" height="30" as="geometry"/>
                </mxCell>
                <mxCell id="XJTI1ORzcmVS8ecLJIW--89" value="" style="html=1;points=[];perimeter=orthogonalPerimeter;" vertex="1" parent="XJTI1ORzcmVS8ecLJIW--14">
                    <mxGeometry x="40" y="710" width="10" height="150" as="geometry"/>
                </mxCell>
                <mxCell id="XJTI1ORzcmVS8ecLJIW--90" value="dispatch" style="html=1;verticalAlign=bottom;endArrow=block;entryX=0;entryY=0;" edge="1" target="XJTI1ORzcmVS8ecLJIW--89" parent="XJTI1ORzcmVS8ecLJIW--14">
                    <mxGeometry relative="1" as="geometry">
                        <mxPoint x="-30" y="710" as="sourcePoint"/>
                    </mxGeometry>
                </mxCell>
                <mxCell id="XJTI1ORzcmVS8ecLJIW--96" value="success" style="html=1;verticalAlign=bottom;endArrow=block;" edge="1" parent="XJTI1ORzcmVS8ecLJIW--14" target="XJTI1ORzcmVS8ecLJIW--9">
                    <mxGeometry width="80" relative="1" as="geometry">
                        <mxPoint x="50" y="850" as="sourcePoint"/>
                        <mxPoint x="130" y="850" as="targetPoint"/>
                    </mxGeometry>
                </mxCell>
                <mxCell id="XJTI1ORzcmVS8ecLJIW--11" value="pixiecore" style="shape=umlLifeline;perimeter=lifelinePerimeter;whiteSpace=wrap;html=1;container=1;collapsible=0;recursiveResize=0;outlineConnect=0;" vertex="1" parent="XJTI1ORzcmVS8ecLJIW--1">
                    <mxGeometry x="300" y="40" width="100" height="1200" as="geometry"/>
                </mxCell>
                <mxCell id="XJTI1ORzcmVS8ecLJIW--30" value="" style="html=1;points=[];perimeter=orthogonalPerimeter;" vertex="1" parent="XJTI1ORzcmVS8ecLJIW--11">
                    <mxGeometry x="40" y="70" width="10" height="130" as="geometry"/>
                </mxCell>
                <mxCell id="XJTI1ORzcmVS8ecLJIW--12" value="metal-core" style="shape=umlLifeline;perimeter=lifelinePerimeter;whiteSpace=wrap;html=1;container=1;collapsible=0;recursiveResize=0;outlineConnect=0;" vertex="1" parent="XJTI1ORzcmVS8ecLJIW--1">
                    <mxGeometry x="420" y="40" width="100" height="1200" as="geometry"/>
                </mxCell>
                <mxCell id="XJTI1ORzcmVS8ecLJIW--18" value="" style="html=1;points=[];perimeter=orthogonalPerimeter;" vertex="1" parent="XJTI1ORzcmVS8ecLJIW--12">
                    <mxGeometry x="40" y="110" width="10" height="80" as="geometry"/>
                </mxCell>
                <mxCell id="XJTI1ORzcmVS8ecLJIW--112" value="" style="html=1;points=[];perimeter=orthogonalPerimeter;" vertex="1" parent="XJTI1ORzcmVS8ecLJIW--12">
                    <mxGeometry x="45" y="1042" width="10" height="20" as="geometry"/>
                </mxCell>
                <mxCell id="XJTI1ORzcmVS8ecLJIW--113" value="reconcile network" style="edgeStyle=orthogonalEdgeStyle;html=1;align=left;spacingLeft=2;endArrow=block;rounded=0;entryX=1;entryY=0;" edge="1" target="XJTI1ORzcmVS8ecLJIW--112" parent="XJTI1ORzcmVS8ecLJIW--12">
                    <mxGeometry relative="1" as="geometry">
                        <mxPoint x="50" y="1022" as="sourcePoint"/>
                        <Array as="points">
                            <mxPoint x="75" y="1022"/>
                        </Array>
                    </mxGeometry>
                </mxCell>
                <mxCell id="XJTI1ORzcmVS8ecLJIW--116" value="reconfigure switch" style="html=1;verticalAlign=bottom;endArrow=block;" edge="1" parent="XJTI1ORzcmVS8ecLJIW--12">
                    <mxGeometry width="80" relative="1" as="geometry">
                        <mxPoint x="50" y="1063" as="sourcePoint"/>
                        <mxPoint x="169.5" y="1063" as="targetPoint"/>
                    </mxGeometry>
                </mxCell>
                <mxCell id="XJTI1ORzcmVS8ecLJIW--44" value="metal-hammer" style="shape=umlLifeline;perimeter=lifelinePerimeter;whiteSpace=wrap;html=1;container=1;collapsible=0;recursiveResize=0;outlineConnect=0;" vertex="1" parent="XJTI1ORzcmVS8ecLJIW--1">
                    <mxGeometry x="180" y="40" width="100" height="1200" as="geometry"/>
                </mxCell>
                <mxCell id="XJTI1ORzcmVS8ecLJIW--57" value="ensure UEFI boot" style="html=1;verticalAlign=bottom;endArrow=block;rounded=0;" edge="1" parent="XJTI1ORzcmVS8ecLJIW--44">
                    <mxGeometry x="0.1634" y="-60" width="80" relative="1" as="geometry">
                        <mxPoint x="50" y="304" as="sourcePoint"/>
                        <mxPoint x="49.666666666666515" y="324" as="targetPoint"/>
                        <Array as="points">
                            <mxPoint x="100" y="304"/>
                            <mxPoint x="100" y="324"/>
                        </Array>
                        <mxPoint x="60" y="60" as="offset"/>
                    </mxGeometry>
                </mxCell>
                <mxCell id="XJTI1ORzcmVS8ecLJIW--70" value="" style="html=1;points=[];perimeter=orthogonalPerimeter;" vertex="1" parent="XJTI1ORzcmVS8ecLJIW--44">
                    <mxGeometry x="40" y="280" width="10" height="740" as="geometry"/>
                </mxCell>
                <mxCell id="XJTI1ORzcmVS8ecLJIW--10" value="machine" style="shape=umlLifeline;perimeter=lifelinePerimeter;whiteSpace=wrap;html=1;container=1;collapsible=0;recursiveResize=0;outlineConnect=0;" vertex="1" parent="XJTI1ORzcmVS8ecLJIW--1">
                    <mxGeometry x="60" y="40" width="100" height="1200" as="geometry"/>
                </mxCell>
                <mxCell id="XJTI1ORzcmVS8ecLJIW--54" value="" style="html=1;points=[];perimeter=orthogonalPerimeter;" vertex="1" parent="XJTI1ORzcmVS8ecLJIW--10">
                    <mxGeometry x="45" y="240" width="10" height="780" as="geometry"/>
                </mxCell>
                <mxCell id="XJTI1ORzcmVS8ecLJIW--55" value="booting metal-hammer" style="edgeStyle=orthogonalEdgeStyle;html=1;align=left;spacingLeft=2;endArrow=block;rounded=0;entryX=1;entryY=0;" edge="1" target="XJTI1ORzcmVS8ecLJIW--54" parent="XJTI1ORzcmVS8ecLJIW--10">
                    <mxGeometry relative="1" as="geometry">
                        <mxPoint x="50" y="220" as="sourcePoint"/>
                        <Array as="points">
                            <mxPoint x="75" y="220"/>
                        </Array>
                    </mxGeometry>
                </mxCell>
                <mxCell id="XJTI1ORzcmVS8ecLJIW--119" value="" style="html=1;points=[];perimeter=orthogonalPerimeter;" vertex="1" parent="XJTI1ORzcmVS8ecLJIW--10">
                    <mxGeometry x="45" y="1050" width="10" height="150" as="geometry"/>
                </mxCell>
                <mxCell id="XJTI1ORzcmVS8ecLJIW--120" value="run target os kernel" style="edgeStyle=orthogonalEdgeStyle;html=1;align=left;spacingLeft=2;endArrow=block;rounded=0;entryX=1;entryY=0;" edge="1" target="XJTI1ORzcmVS8ecLJIW--119" parent="XJTI1ORzcmVS8ecLJIW--10">
                    <mxGeometry relative="1" as="geometry">
                        <mxPoint x="50" y="1030" as="sourcePoint"/>
                        <Array as="points">
                            <mxPoint x="75" y="1030"/>
                        </Array>
                    </mxGeometry>
                </mxCell>
                <mxCell id="XJTI1ORzcmVS8ecLJIW--16" value="machine pxe boot event" style="html=1;verticalAlign=bottom;endArrow=block;" edge="1" parent="XJTI1ORzcmVS8ecLJIW--1" target="XJTI1ORzcmVS8ecLJIW--14">
                    <mxGeometry width="80" relative="1" as="geometry">
                        <mxPoint x="349.9966666666665" y="119" as="sourcePoint"/>
                        <mxPoint x="469.83" y="119" as="targetPoint"/>
                        <Array as="points">
                            <mxPoint x="350.33" y="119"/>
                        </Array>
                    </mxGeometry>
                </mxCell>
                <mxCell id="XJTI1ORzcmVS8ecLJIW--20" value="discovery image url" style="html=1;verticalAlign=bottom;endArrow=open;dashed=1;endSize=8;exitX=0;exitY=0.95;" edge="1" source="XJTI1ORzcmVS8ecLJIW--18" parent="XJTI1ORzcmVS8ecLJIW--1">
                    <mxGeometry relative="1" as="geometry">
                        <mxPoint x="349.6666666666665" y="226" as="targetPoint"/>
                    </mxGeometry>
                </mxCell>
                <mxCell id="XJTI1ORzcmVS8ecLJIW--19" value="request boot image" style="html=1;verticalAlign=bottom;endArrow=block;entryX=0;entryY=0;" edge="1" target="XJTI1ORzcmVS8ecLJIW--18" parent="XJTI1ORzcmVS8ecLJIW--1">
                    <mxGeometry relative="1" as="geometry">
                        <mxPoint x="349.6666666666665" y="150.0000000000001" as="sourcePoint"/>
                    </mxGeometry>
                </mxCell>
                <mxCell id="XJTI1ORzcmVS8ecLJIW--23" value="machine state and partition info" style="html=1;verticalAlign=bottom;endArrow=open;dashed=1;endSize=8;exitX=0;exitY=0.95;" edge="1" source="XJTI1ORzcmVS8ecLJIW--21" parent="XJTI1ORzcmVS8ecLJIW--1">
                    <mxGeometry relative="1" as="geometry">
                        <mxPoint x="469.6666666666665" y="208.5" as="targetPoint"/>
                    </mxGeometry>
                </mxCell>
                <mxCell id="XJTI1ORzcmVS8ecLJIW--22" value="lookup partition boot image and machine" style="html=1;verticalAlign=bottom;endArrow=block;entryX=0;entryY=0;" edge="1" target="XJTI1ORzcmVS8ecLJIW--21" parent="XJTI1ORzcmVS8ecLJIW--1">
                    <mxGeometry relative="1" as="geometry">
                        <mxPoint x="470" y="161" as="sourcePoint"/>
                    </mxGeometry>
                </mxCell>
                <mxCell id="XJTI1ORzcmVS8ecLJIW--31" value="pxe request" style="html=1;verticalAlign=bottom;endArrow=block;entryX=0;entryY=0;" edge="1" target="XJTI1ORzcmVS8ecLJIW--30" parent="XJTI1ORzcmVS8ecLJIW--1" source="XJTI1ORzcmVS8ecLJIW--10">
                    <mxGeometry relative="1" as="geometry">
                        <mxPoint x="270" y="110" as="sourcePoint"/>
                    </mxGeometry>
                </mxCell>
                <mxCell id="XJTI1ORzcmVS8ecLJIW--32" value="pxe response" style="html=1;verticalAlign=bottom;endArrow=open;dashed=1;endSize=8;exitX=0;exitY=0.95;" edge="1" source="XJTI1ORzcmVS8ecLJIW--30" parent="XJTI1ORzcmVS8ecLJIW--1" target="XJTI1ORzcmVS8ecLJIW--10">
                    <mxGeometry relative="1" as="geometry">
                        <mxPoint x="270" y="186" as="targetPoint"/>
                    </mxGeometry>
                </mxCell>
                <mxCell id="XJTI1ORzcmVS8ecLJIW--58" value="machine prepare event" style="html=1;verticalAlign=bottom;endArrow=block;" edge="1" parent="XJTI1ORzcmVS8ecLJIW--1" target="XJTI1ORzcmVS8ecLJIW--14">
                    <mxGeometry width="80" relative="1" as="geometry">
                        <mxPoint x="229.99666666666644" y="328" as="sourcePoint"/>
                        <mxPoint x="589.5" y="328" as="targetPoint"/>
                        <Array as="points">
                            <mxPoint x="230.32999999999998" y="328"/>
                        </Array>
                    </mxGeometry>
                </mxCell>
                <mxCell id="XJTI1ORzcmVS8ecLJIW--59" value="start interfaces and&lt;br&gt;find LLDP neigbors" style="html=1;verticalAlign=bottom;endArrow=block;rounded=0;" edge="1" parent="XJTI1ORzcmVS8ecLJIW--1">
                    <mxGeometry x="0.1634" y="61" width="80" relative="1" as="geometry">
                        <mxPoint x="230" y="380" as="sourcePoint"/>
                        <mxPoint x="229.66666666666652" y="400" as="targetPoint"/>
                        <Array as="points">
                            <mxPoint x="280" y="380"/>
                            <mxPoint x="280" y="400"/>
                        </Array>
                        <mxPoint x="60" y="-51" as="offset"/>
                    </mxGeometry>
                </mxCell>
                <mxCell id="XJTI1ORzcmVS8ecLJIW--66" value="discover system&amp;nbsp;&lt;br&gt;hardware" style="html=1;verticalAlign=bottom;endArrow=block;rounded=0;" edge="1" parent="XJTI1ORzcmVS8ecLJIW--1">
                    <mxGeometry x="0.1634" y="61" width="80" relative="1" as="geometry">
                        <mxPoint x="230" y="420" as="sourcePoint"/>
                        <mxPoint x="229.66666666666652" y="440" as="targetPoint"/>
                        <Array as="points">
                            <mxPoint x="280" y="420"/>
                            <mxPoint x="280" y="440"/>
                            <mxPoint x="250" y="440"/>
                        </Array>
                        <mxPoint x="60" y="-51" as="offset"/>
                    </mxGeometry>
                </mxCell>
                <mxCell id="XJTI1ORzcmVS8ecLJIW--67" value="wipe disks" style="html=1;verticalAlign=bottom;endArrow=block;rounded=0;" edge="1" parent="XJTI1ORzcmVS8ecLJIW--1">
                    <mxGeometry x="0.1634" y="-40" width="80" relative="1" as="geometry">
                        <mxPoint x="230" y="460" as="sourcePoint"/>
                        <mxPoint x="229.66666666666652" y="480" as="targetPoint"/>
                        <Array as="points">
                            <mxPoint x="280" y="460"/>
                            <mxPoint x="280" y="480"/>
                            <mxPoint x="250" y="480"/>
                        </Array>
                        <mxPoint x="40" y="40" as="offset"/>
                    </mxGeometry>
                </mxCell>
                <mxCell id="XJTI1ORzcmVS8ecLJIW--71" value="run init process" style="html=1;verticalAlign=bottom;startArrow=oval;endArrow=block;startSize=8;exitX=0.967;exitY=0.075;exitDx=0;exitDy=0;exitPerimeter=0;" edge="1" target="XJTI1ORzcmVS8ecLJIW--70" parent="XJTI1ORzcmVS8ecLJIW--1" source="XJTI1ORzcmVS8ecLJIW--54">
                    <mxGeometry relative="1" as="geometry">
                        <mxPoint x="160" y="320" as="sourcePoint"/>
                    </mxGeometry>
                </mxCell>
                <mxCell id="XJTI1ORzcmVS8ecLJIW--72" value="machine register event" style="html=1;verticalAlign=bottom;endArrow=block;" edge="1" parent="XJTI1ORzcmVS8ecLJIW--1" target="XJTI1ORzcmVS8ecLJIW--14">
                    <mxGeometry width="80" relative="1" as="geometry">
                        <mxPoint x="229.99666666666644" y="540" as="sourcePoint"/>
                        <mxPoint x="589.5" y="540" as="targetPoint"/>
                        <Array as="points">
                            <mxPoint x="230.32999999999998" y="540"/>
                        </Array>
                    </mxGeometry>
                </mxCell>
                <mxCell id="XJTI1ORzcmVS8ecLJIW--74" value="" style="html=1;points=[];perimeter=orthogonalPerimeter;" vertex="1" parent="XJTI1ORzcmVS8ecLJIW--1">
                    <mxGeometry x="700" y="570" width="10" height="20" as="geometry"/>
                </mxCell>
                <mxCell id="XJTI1ORzcmVS8ecLJIW--75" value="machine register" style="html=1;verticalAlign=bottom;endArrow=block;entryX=0;entryY=0;" edge="1" target="XJTI1ORzcmVS8ecLJIW--74" parent="XJTI1ORzcmVS8ecLJIW--1" source="XJTI1ORzcmVS8ecLJIW--70">
                    <mxGeometry relative="1" as="geometry">
                        <mxPoint x="232" y="570" as="sourcePoint"/>
                    </mxGeometry>
                </mxCell>
                <mxCell id="XJTI1ORzcmVS8ecLJIW--76" value="success" style="html=1;verticalAlign=bottom;endArrow=open;dashed=1;endSize=8;exitX=0;exitY=0.95;" edge="1" source="XJTI1ORzcmVS8ecLJIW--74" parent="XJTI1ORzcmVS8ecLJIW--1" target="XJTI1ORzcmVS8ecLJIW--70">
                    <mxGeometry relative="1" as="geometry">
                        <mxPoint x="630" y="646" as="targetPoint"/>
                    </mxGeometry>
                </mxCell>
                <mxCell id="XJTI1ORzcmVS8ecLJIW--78" value="machine wait event" style="html=1;verticalAlign=bottom;endArrow=block;" edge="1" parent="XJTI1ORzcmVS8ecLJIW--1" target="XJTI1ORzcmVS8ecLJIW--14">
                    <mxGeometry width="80" relative="1" as="geometry">
                        <mxPoint x="229.99666666666644" y="639.9999999999999" as="sourcePoint"/>
                        <mxPoint x="589.5" y="639.9999999999999" as="targetPoint"/>
                        <Array as="points">
                            <mxPoint x="230.32999999999998" y="640"/>
                        </Array>
                    </mxGeometry>
                </mxCell>
                <mxCell id="XJTI1ORzcmVS8ecLJIW--80" value="[ until allocated ]" style="text;html=1;strokeColor=none;fillColor=none;align=center;verticalAlign=middle;whiteSpace=wrap;rounded=0;" vertex="1" parent="XJTI1ORzcmVS8ecLJIW--1">
                    <mxGeometry x="240" y="660" width="90" height="20" as="geometry"/>
                </mxCell>
                <mxCell id="XJTI1ORzcmVS8ecLJIW--82" value="add to&lt;br&gt;machine candidate&lt;br&gt;wait table" style="html=1;verticalAlign=bottom;endArrow=block;rounded=0;" edge="1" parent="XJTI1ORzcmVS8ecLJIW--1">
                    <mxGeometry x="0.1634" y="61" width="80" relative="1" as="geometry">
                        <mxPoint x="710.3299999999999" y="695.9999999999999" as="sourcePoint"/>
                        <mxPoint x="709.9966666666664" y="715.9999999999999" as="targetPoint"/>
                        <Array as="points">
                            <mxPoint x="760.3299999999999" y="696"/>
                            <mxPoint x="760.3299999999999" y="716"/>
                            <mxPoint x="730.3299999999999" y="716"/>
                        </Array>
                        <mxPoint x="60" y="-51" as="offset"/>
                    </mxGeometry>
                </mxCell>
                <mxCell id="XJTI1ORzcmVS8ecLJIW--84" value="machine wait for allocation" style="html=1;verticalAlign=bottom;endArrow=block;entryX=0;entryY=0;" edge="1" target="XJTI1ORzcmVS8ecLJIW--83" parent="XJTI1ORzcmVS8ecLJIW--1" source="XJTI1ORzcmVS8ecLJIW--70">
                    <mxGeometry relative="1" as="geometry">
                        <mxPoint x="630" y="690" as="sourcePoint"/>
                    </mxGeometry>
                </mxCell>
                <mxCell id="XJTI1ORzcmVS8ecLJIW--85" value="timeout" style="html=1;verticalAlign=bottom;endArrow=open;dashed=1;endSize=8;exitX=0;exitY=0.95;" edge="1" source="XJTI1ORzcmVS8ecLJIW--83" parent="XJTI1ORzcmVS8ecLJIW--1" target="XJTI1ORzcmVS8ecLJIW--44">
                    <mxGeometry relative="1" as="geometry">
                        <mxPoint x="630" y="766" as="targetPoint"/>
                    </mxGeometry>
                </mxCell>
                <mxCell id="XJTI1ORzcmVS8ecLJIW--92" value="machine wait for allocation" style="html=1;verticalAlign=bottom;endArrow=block;entryX=0;entryY=0;" edge="1" parent="XJTI1ORzcmVS8ecLJIW--1" source="XJTI1ORzcmVS8ecLJIW--70" target="XJTI1ORzcmVS8ecLJIW--89">
                    <mxGeometry relative="1" as="geometry">
                        <mxPoint x="630" y="750" as="sourcePoint"/>
                    </mxGeometry>
                </mxCell>
                <mxCell id="XJTI1ORzcmVS8ecLJIW--94" value="allocate" style="html=1;verticalAlign=bottom;endArrow=block;entryX=1;entryY=0.25;entryDx=0;entryDy=0;entryPerimeter=0;" edge="1" parent="XJTI1ORzcmVS8ecLJIW--1">
                    <mxGeometry width="80" relative="1" as="geometry">
                        <mxPoint x="810" y="820" as="sourcePoint"/>
                        <mxPoint x="710" y="820" as="targetPoint"/>
                    </mxGeometry>
                </mxCell>
                <mxCell id="XJTI1ORzcmVS8ecLJIW--95" value="add to&lt;br&gt;machine candidate&lt;br&gt;wait table" style="html=1;verticalAlign=bottom;endArrow=block;rounded=0;" edge="1" parent="XJTI1ORzcmVS8ecLJIW--1">
                    <mxGeometry x="0.1634" y="61" width="80" relative="1" as="geometry">
                        <mxPoint x="709.9999999999999" y="760" as="sourcePoint"/>
                        <mxPoint x="709.6666666666664" y="780" as="targetPoint"/>
                        <Array as="points">
                            <mxPoint x="759.9999999999999" y="760"/>
                            <mxPoint x="759.9999999999999" y="780"/>
                            <mxPoint x="729.9999999999999" y="780"/>
                        </Array>
                        <mxPoint x="60" y="-51" as="offset"/>
                    </mxGeometry>
                </mxCell>
                <mxCell id="XJTI1ORzcmVS8ecLJIW--91" value="allocation data" style="html=1;verticalAlign=bottom;endArrow=open;dashed=1;endSize=8;exitX=0;exitY=0.95;" edge="1" source="XJTI1ORzcmVS8ecLJIW--89" parent="XJTI1ORzcmVS8ecLJIW--1" target="XJTI1ORzcmVS8ecLJIW--70">
                    <mxGeometry relative="1" as="geometry">
                        <mxPoint x="630" y="826" as="targetPoint"/>
                    </mxGeometry>
                </mxCell>
                <mxCell id="XJTI1ORzcmVS8ecLJIW--97" value="elect machine candidate" style="html=1;verticalAlign=bottom;endArrow=block;rounded=0;" edge="1" parent="XJTI1ORzcmVS8ecLJIW--1">
                    <mxGeometry x="0.1634" y="-70" width="80" relative="1" as="geometry">
                        <mxPoint x="710" y="840" as="sourcePoint"/>
                        <mxPoint x="709.6666666666665" y="860" as="targetPoint"/>
                        <Array as="points">
                            <mxPoint x="759.9999999999999" y="840"/>
                            <mxPoint x="759.9999999999999" y="860"/>
                            <mxPoint x="729.9999999999999" y="860"/>
                        </Array>
                        <mxPoint x="70" y="70" as="offset"/>
                    </mxGeometry>
                </mxCell>
                <mxCell id="XJTI1ORzcmVS8ecLJIW--100" value="download and burn&lt;br&gt;target os image" style="html=1;verticalAlign=bottom;endArrow=block;rounded=0;" edge="1" parent="XJTI1ORzcmVS8ecLJIW--1">
                    <mxGeometry x="0.1634" y="61" width="80" relative="1" as="geometry">
                        <mxPoint x="230" y="918.9999999999999" as="sourcePoint"/>
                        <mxPoint x="229.66666666666652" y="938.9999999999999" as="targetPoint"/>
                        <Array as="points">
                            <mxPoint x="280" y="919"/>
                            <mxPoint x="280" y="939"/>
                            <mxPoint x="250" y="939"/>
                        </Array>
                        <mxPoint x="60" y="-51" as="offset"/>
                    </mxGeometry>
                </mxCell>
                <mxCell id="XJTI1ORzcmVS8ecLJIW--101" value="run image install.sh&lt;br&gt;and ignition" style="html=1;verticalAlign=bottom;endArrow=block;rounded=0;" edge="1" parent="XJTI1ORzcmVS8ecLJIW--1">
                    <mxGeometry x="0.1634" y="61" width="80" relative="1" as="geometry">
                        <mxPoint x="230" y="953" as="sourcePoint"/>
                        <mxPoint x="229.66666666666652" y="973" as="targetPoint"/>
                        <Array as="points">
                            <mxPoint x="280" y="953"/>
                            <mxPoint x="280" y="973"/>
                            <mxPoint x="250" y="973"/>
                        </Array>
                        <mxPoint x="60" y="-51" as="offset"/>
                    </mxGeometry>
                </mxCell>
                <mxCell id="XJTI1ORzcmVS8ecLJIW--102" value="machine install event" style="html=1;verticalAlign=bottom;endArrow=block;" edge="1" parent="XJTI1ORzcmVS8ecLJIW--1">
                    <mxGeometry width="80" relative="1" as="geometry">
                        <mxPoint x="230.49666666666644" y="912" as="sourcePoint"/>
                        <mxPoint x="710" y="912" as="targetPoint"/>
                        <Array as="points">
                            <mxPoint x="230.82999999999998" y="912"/>
                        </Array>
                    </mxGeometry>
                </mxCell>
                <mxCell id="XJTI1ORzcmVS8ecLJIW--103" value="ensure boot from HD" style="html=1;verticalAlign=bottom;endArrow=block;rounded=0;" edge="1" parent="XJTI1ORzcmVS8ecLJIW--1">
                    <mxGeometry x="0.1634" y="-60" width="80" relative="1" as="geometry">
                        <mxPoint x="230" y="990" as="sourcePoint"/>
                        <mxPoint x="229.66666666666652" y="1010" as="targetPoint"/>
                        <Array as="points">
                            <mxPoint x="280" y="990"/>
                            <mxPoint x="280" y="1010"/>
                            <mxPoint x="250" y="1010"/>
                        </Array>
                        <mxPoint x="60" y="60" as="offset"/>
                    </mxGeometry>
                </mxCell>
                <mxCell id="XJTI1ORzcmVS8ecLJIW--104" value="report install success, finalize machine allocation" style="html=1;verticalAlign=bottom;endArrow=block;" edge="1" parent="XJTI1ORzcmVS8ecLJIW--1">
                    <mxGeometry width="80" relative="1" as="geometry">
                        <mxPoint x="230.49666666666644" y="1030" as="sourcePoint"/>
                        <mxPoint x="710" y="1030" as="targetPoint"/>
                        <Array as="points">
                            <mxPoint x="230.82999999999998" y="1030"/>
                        </Array>
                    </mxGeometry>
                </mxCell>
                <mxCell id="XJTI1ORzcmVS8ecLJIW--114" value="kexec os kernel" style="html=1;verticalAlign=bottom;endArrow=block;exitX=-0.117;exitY=0.998;exitDx=0;exitDy=0;exitPerimeter=0;" edge="1" parent="XJTI1ORzcmVS8ecLJIW--1" source="XJTI1ORzcmVS8ecLJIW--70" target="XJTI1ORzcmVS8ecLJIW--54">
                    <mxGeometry width="80" relative="1" as="geometry">
                        <mxPoint x="220" y="1040" as="sourcePoint"/>
                        <mxPoint x="300" y="1040" as="targetPoint"/>
                        <Array as="points"/>
                    </mxGeometry>
                </mxCell>
                <mxCell id="XJTI1ORzcmVS8ecLJIW--118" value="machine boot os kernel event" style="html=1;verticalAlign=bottom;endArrow=block;" edge="1" parent="XJTI1ORzcmVS8ecLJIW--1">
                    <mxGeometry width="80" relative="1" as="geometry">
                        <mxPoint x="230.24666666666644" y="1050" as="sourcePoint"/>
                        <mxPoint x="709.75" y="1050" as="targetPoint"/>
                        <Array as="points">
                            <mxPoint x="230.57999999999998" y="1050"/>
                        </Array>
                    </mxGeometry>
                </mxCell>
                <mxCell id="XJTI1ORzcmVS8ecLJIW--129" value="use" style="html=1;verticalAlign=bottom;endArrow=block;" edge="1" parent="XJTI1ORzcmVS8ecLJIW--1">
                    <mxGeometry width="80" relative="1" as="geometry">
                        <mxPoint x="810" y="1200" as="sourcePoint"/>
                        <mxPoint x="114.99999999999989" y="1200" as="targetPoint"/>
                    </mxGeometry>
                </mxCell>
                <mxCell id="XJTI1ORzcmVS8ecLJIW--130" value="report machine phone home event &lt;br&gt;[ if go-lldp running in target os ]" style="html=1;verticalAlign=bottom;endArrow=block;" edge="1" parent="XJTI1ORzcmVS8ecLJIW--1">
                    <mxGeometry width="80" relative="1" as="geometry">
                        <mxPoint x="469.6666666666665" y="1170.0000000000002" as="sourcePoint"/>
                        <mxPoint x="709.5" y="1170.0000000000002" as="targetPoint"/>
                    </mxGeometry>
                </mxCell>
            </root>
        </mxGraphModel>
    </diagram>
</mxfile>